<svg xmlns="http://www.w3.org/2000/svg" width="394" height="114.754" viewBox="0 0 394 114.754"><defs><style>.a{fill:none;}.b{fill:#882225;}.c{fill:#d82529;}.d{fill:#fff;}.e{fill:#cb2b2c;stroke:#cb2b2c;stroke-miterlimit:10;stroke-width:0.649px;}</style></defs><g transform="translate(-267.387 -138.998)"><g transform="translate(267.387 138.998)"><path class="a" d="M657.524,169.078a26.026,26.026,0,0,0-8.23-5.66,26.2,26.2,0,0,0-20.452,0,25.676,25.676,0,0,0-8.2,5.66,27.31,27.31,0,0,0-5.469,29.01,26.184,26.184,0,0,0,5.469,8.366,25.859,25.859,0,0,0,8.2,5.632,26.2,26.2,0,0,0,20.452,0,25.818,25.818,0,0,0,13.727-14,27.628,27.628,0,0,0,0-20.616A26.321,26.321,0,0,0,657.524,169.078Z" transform="translate(-371.969 -145.755)"/><path class="a" d="M677.112,280.287a7.81,7.81,0,0,0-2.5-1.625,8,8,0,0,0-3.057-.585h-4.816v15.6h4.79a7.935,7.935,0,0,0,2.131-.283,8.02,8.02,0,0,0,1.9-.794,7.784,7.784,0,0,0,1.594-1.229,7.611,7.611,0,0,0,1.223-1.588,7.837,7.837,0,0,0,.782-1.871,7.733,7.733,0,0,0,.278-2.072,7.6,7.6,0,0,0-.624-3.092A7.717,7.717,0,0,0,677.112,280.287Z" transform="translate(-388.168 -181.061)"/><path class="a" d="M622.777,289.425h8.266l-4.114-10.083Z" transform="translate(-374.873 -181.444)"/><path class="a" d="M587.254,282.338a4.466,4.466,0,0,0-1.28-3.147,4.481,4.481,0,0,0-1.407-.961,4.3,4.3,0,0,0-1.742-.354h-6.233v8.883h5.741q.493,0,.972-.025a3.4,3.4,0,0,0,.947-.189,4.676,4.676,0,0,0,1.212-.633,4.247,4.247,0,0,0,.952-.954,4.463,4.463,0,0,0,.839-2.621Z" transform="translate(-360.904 -181.001)"/><path class="a" d="M825.175,145.473a4.29,4.29,0,0,0-2.19-.591,4.4,4.4,0,0,0-2.213.591,4.313,4.313,0,0,0-1.623,1.623,4.386,4.386,0,0,0-.589,2.215,4.381,4.381,0,0,0,2.218,3.812,4.39,4.39,0,0,0,2.208.592,4.274,4.274,0,0,0,2.19-.6,4.362,4.362,0,0,0,1.614-1.613,4.405,4.405,0,0,0,0-4.41A4.373,4.373,0,0,0,825.175,145.473Zm-.585,6.72a4.711,4.711,0,0,1-.14-.86l-.046-.721a1.288,1.288,0,0,0-.127-.555.552.552,0,0,0-.287-.234,2.469,2.469,0,0,0-.738-.071h-1.477v2.441h-.934v-5.871H823.3a3.263,3.263,0,0,1,1.239.171,1.4,1.4,0,0,1,.616.563,1.721,1.721,0,0,1,.238.91,1.649,1.649,0,0,1-.171.772,1.7,1.7,0,0,1-.568.527,1.145,1.145,0,0,1,.534.451,2.029,2.029,0,0,1,.138.881v.66a1.368,1.368,0,0,0,.209.781l.1.155Z" transform="translate(-434.086 -140.778)"/><path class="a" d="M824.672,148.152h-1.5V149.9h1.445a1.81,1.81,0,0,0,.892-.151.79.79,0,0,0,.345-.73.812.812,0,0,0-.247-.658A1.5,1.5,0,0,0,824.672,148.152Z" transform="translate(-435.48 -141.767)"/><path class="b" d="M510.351,180.955l11.7-16.979L506.075,141a1.41,1.41,0,0,0-1.157-.525H483.556c-.979,0-1.609.776-1.157,1.426l27.093,38.977a.761.761,0,0,1,.013.882l-25.72,39.084c-.427.649.2,1.407,1.17,1.407H505.1a1.407,1.407,0,0,0,1.159-.528l15.829-22.977-11.74-16.889A.763.763,0,0,1,510.351,180.955Z" transform="translate(-332.371 -139.443)"/><path class="c" d="M546.77,181.843a.762.762,0,0,1-.013-.882l25.72-39.084c.427-.648-.2-1.407-1.17-1.407h-20.15A1.405,1.405,0,0,0,550,141l-15.83,22.977-11.7,16.979a.763.763,0,0,0,0,.9l11.74,16.889,15.973,22.98a1.408,1.408,0,0,0,1.157.525h21.362c.979,0,1.609-.776,1.157-1.426Z" transform="translate(-344.492 -139.443)"/><path class="d" d="M826.314,151.882v-.66a2.03,2.03,0,0,0-.138-.881,1.145,1.145,0,0,0-.534-.451,1.7,1.7,0,0,0,.568-.527,1.648,1.648,0,0,0,.171-.772,1.721,1.721,0,0,0-.238-.91,1.4,1.4,0,0,0-.616-.563,3.263,3.263,0,0,0-1.239-.171H821.83v5.871h.934v-2.441h1.477a2.47,2.47,0,0,1,.738.071.552.552,0,0,1,.287.234,1.287,1.287,0,0,1,.127.555l.046.721a4.712,4.712,0,0,0,.14.86h1.041l-.1-.155A1.367,1.367,0,0,1,826.314,151.882Zm-1.212-2.5a1.81,1.81,0,0,1-.892.151h-1.445v-1.748h1.5a1.5,1.5,0,0,1,.932.209.812.812,0,0,1,.247.658A.79.79,0,0,1,825.1,149.384Z" transform="translate(-435.075 -141.402)"/><path class="d" d="M827.09,146.446a5.11,5.11,0,0,0-8.858.006,5.074,5.074,0,0,0-.687,2.567,4.991,4.991,0,0,0,.687,2.542,5.115,5.115,0,1,0,8.858-5.115Zm-.608,4.759a4.361,4.361,0,0,1-1.614,1.613,4.274,4.274,0,0,1-2.19.6,4.39,4.39,0,0,1-2.208-.592,4.381,4.381,0,0,1-2.218-3.812,4.385,4.385,0,0,1,.589-2.215,4.312,4.312,0,0,1,1.623-1.623,4.4,4.4,0,0,1,2.213-.591,4.29,4.29,0,0,1,2.19.591,4.458,4.458,0,0,1,2.2,3.825A4.315,4.315,0,0,1,826.483,151.2Z" transform="translate(-433.779 -140.476)"/><path class="e" d="M544.072,275.814H530.859a.416.416,0,0,0-.454.454v.518c0,.327.151.492.454.492h5.906V294.1a.413.413,0,0,0,.467.467h.517a.413.413,0,0,0,.467-.467V277.278h5.855a.487.487,0,0,0,.378-.139.5.5,0,0,0,.126-.353v-.518a.5.5,0,0,0-.158-.34A.51.51,0,0,0,544.072,275.814Z" transform="translate(-346.935 -180.377)"/><path class="e" d="M587.111,284.938a5.818,5.818,0,0,0,.965-3.231,5.766,5.766,0,0,0-.455-2.277,5.98,5.98,0,0,0-1.243-1.868,5.9,5.9,0,0,0-1.855-1.268,5.8,5.8,0,0,0-2.291-.479h-7.269a.386.386,0,0,0-.291.094.926.926,0,0,0-.164.322v17.882a.4.4,0,0,0,.455.454h.543a.4.4,0,0,0,.455-.454v-6.537h6.145a4.777,4.777,0,0,0,.587-.031,4.219,4.219,0,0,0,.511-.094l3.1,6.877a.341.341,0,0,0,.329.24c.294,0,.521,0,.681-.006a1.557,1.557,0,0,0,.354-.038.188.188,0,0,0,.138-.094.555.555,0,0,0,.026-.19.648.648,0,0,0-.064-.227l-3.167-6.941a5.683,5.683,0,0,0,1.408-.889A6.1,6.1,0,0,0,587.111,284.938Zm-2.277.352a4.677,4.677,0,0,1-1.212.633,3.4,3.4,0,0,1-.947.189q-.48.025-.972.025h-5.741v-8.883H582.2a4.3,4.3,0,0,1,1.742.354,4.481,4.481,0,0,1,1.407.961,4.5,4.5,0,0,1,.442,5.768A4.246,4.246,0,0,1,584.834,285.29Z" transform="translate(-360.275 -180.377)"/><path class="e" d="M633.292,293.944,625.883,276.1c-.049-.076-.1-.151-.163-.227a.363.363,0,0,0-.3-.113H624.9a.345.345,0,0,0-.29.113,1.283,1.283,0,0,0-.151.253l-7.092,16.986c-.059.135-.121.283-.183.448s-.125.342-.183.536a.115.115,0,0,0-.012.057v.057c0,.193.135.3.4.327h.668a.364.364,0,0,0,.114.013.463.463,0,0,0,.442-.315q.366-.91.814-2.007t.94-2.309h9.565l1.768,4.291a.473.473,0,0,0,.453.353.218.218,0,0,0,.051-.007.2.2,0,0,1,.05-.006h.67q.4-.05.4-.353a1.162,1.162,0,0,0-.013-.133A.5.5,0,0,0,633.292,293.944Zm-12.266-5.6,4.151-10.084,4.114,10.084Z" transform="translate(-373.122 -180.361)"/><path class="e" d="M679.064,280.465a9.384,9.384,0,0,0-1.451-1.893,9.054,9.054,0,0,0-1.893-1.458,9.841,9.841,0,0,0-2.252-.947,9.544,9.544,0,0,0-2.518-.353h-6.058c-.278.017-.416.177-.416.479v17.882a.275.275,0,0,0,.05.177.391.391,0,0,0,.12.1,1.163,1.163,0,0,0,.12.056c.033.012.049.023.049.031a.241.241,0,0,0,.127.025h5.919a9.58,9.58,0,0,0,2.524-.329,9.425,9.425,0,0,0,5.653-4.284,9.261,9.261,0,0,0,1.288-4.738,9.5,9.5,0,0,0-.329-2.5A9.325,9.325,0,0,0,679.064,280.465Zm-.594,6.76a7.839,7.839,0,0,1-.782,1.871,7.614,7.614,0,0,1-1.223,1.588,7.781,7.781,0,0,1-1.594,1.229,8.017,8.017,0,0,1-1.9.794,7.935,7.935,0,0,1-2.131.283h-4.79v-15.6h4.816a8,8,0,0,1,3.057.585,7.811,7.811,0,0,1,2.5,1.625,7.72,7.72,0,0,1,1.7,2.458,7.6,7.6,0,0,1,.624,3.092A7.73,7.73,0,0,1,678.47,287.225Z" transform="translate(-387.484 -180.377)"/><path class="e" d="M713.35,275.814H712.7a.453.453,0,0,0-.345.126.463.463,0,0,0-.119.329v17.844a.406.406,0,0,0,.464.454h.651a.406.406,0,0,0,.463-.454V276.268a.43.43,0,0,0-.132-.334A.477.477,0,0,0,713.35,275.814Z" transform="translate(-401.929 -180.377)"/><path class="e" d="M755.476,275.814h-.567a.4.4,0,0,0-.454.429v15.724q-1.49-1.88-3.111-3.912l-3.268-4.095q-1.648-2.064-3.262-4.1t-3.1-3.912a.3.3,0,0,0-.24-.126c-.285,0-.511,0-.674.006a1.388,1.388,0,0,0-.366.045.192.192,0,0,0-.146.132,1.121,1.121,0,0,0-.025.271v17.832a.4.4,0,0,0,.454.454h.531a.407.407,0,0,0,.466-.454V278.249l12.721,16.115a.511.511,0,0,0,.416.2h.593a.407.407,0,0,0,.467-.416V276.218Q755.905,275.814,755.476,275.814Z" transform="translate(-410.404 -180.377)"/><path class="e" d="M802.612,286.182h-.526a.411.411,0,0,0-.463.467v5.073a8.064,8.064,0,0,1-2.1,1.1,7.7,7.7,0,0,1-2.665.449,7.846,7.846,0,0,1-2.142-.291,8.358,8.358,0,0,1-1.938-.821,8.184,8.184,0,0,1-1.655-1.27,7.971,7.971,0,0,1-1.276-1.641,8.3,8.3,0,0,1-.827-1.945,8.053,8.053,0,0,1-.013-4.282,8.456,8.456,0,0,1,.8-1.938,8.025,8.025,0,0,1,1.257-1.661,8.13,8.13,0,0,1,1.643-1.288,8.292,8.292,0,0,1,1.957-.839,7.935,7.935,0,0,1,2.205-.3,7.61,7.61,0,0,1,2.545.429,9.142,9.142,0,0,1,2.318,1.224.946.946,0,0,0,.5.228.285.285,0,0,0,.181-.064,1.155,1.155,0,0,0,.169-.165l.338-.428a.423.423,0,0,0,.1-.265q0-.177-.271-.41a5.29,5.29,0,0,0-.656-.473q-.385-.24-.806-.455t-.725-.354a9.512,9.512,0,0,0-6.261-.409,9.554,9.554,0,0,0-4.23,2.486,9.758,9.758,0,0,0-1.5,1.943,9.651,9.651,0,0,0-.964,2.3,9.732,9.732,0,0,0,0,5.1,9.8,9.8,0,0,0,.958,2.3,9.249,9.249,0,0,0,1.495,1.937A9.782,9.782,0,0,0,792,293.407a9.527,9.527,0,0,0,4.842,1.307,9.1,9.1,0,0,0,3.177-.545,11.73,11.73,0,0,0,2.737-1.437,1.191,1.191,0,0,0,.232-.221.389.389,0,0,0,.082-.246V286.65a.461.461,0,0,0-.126-.348A.469.469,0,0,0,802.612,286.182Z" transform="translate(-424.624 -180.284)"/><path class="d" d="M335.085,141.036H324.531a2.4,2.4,0,0,0-1.586.547,2.433,2.433,0,0,0-.82,1.531V195.5q-9.351-13.341-18.538-26.495T285.05,142.513a3.553,3.553,0,0,0-1.23-1.121,3.11,3.11,0,0,0-1.45-.356H269.794a2.25,2.25,0,0,0-1.778.711,2.547,2.547,0,0,0-.629,1.749V219.89a2.456,2.456,0,0,0,.574,1.722,2.374,2.374,0,0,0,1.832.629h10.5a2.606,2.606,0,0,0,1.941-.6,2.527,2.527,0,0,0,.574-1.805V164.987q9.57,14,19.112,27.916t19.166,27.861a2.852,2.852,0,0,0,2.242,1.477h11.867q2.57,0,2.57-2.243V143.442a2.162,2.162,0,0,0-.792-1.75A2.875,2.875,0,0,0,335.085,141.036Z" transform="translate(-267.387 -139.614)"/><path class="d" d="M450.034,207.258h-40.3v-19.85h30.076a2,2,0,0,0,1.75-.766,2.936,2.936,0,0,0,.547-1.749v-9.9a2.469,2.469,0,0,0-.656-1.941,2.209,2.209,0,0,0-1.749-.465H409.732V156.019h38.88a2.6,2.6,0,0,0,2.051-.768,2.573,2.573,0,0,0,.684-1.757v-9.659a3.23,3.23,0,0,0-.6-2,2.377,2.377,0,0,0-2.024-.8H396.006q-2.408,0-2.406,2.625v76.284a2.067,2.067,0,0,0,.711,1.75,2.7,2.7,0,0,0,1.7.547h54.137q2.406,0,2.406-2.305v-9.99a3.4,3.4,0,0,0-.492-2.03A2.436,2.436,0,0,0,450.034,207.258Z" transform="translate(-305.559 -139.614)"/><path class="d" d="M668.362,160.115A41.708,41.708,0,0,0,653.352,145.1a42.887,42.887,0,0,0-9.98-4.21,41.719,41.719,0,0,0-22.2,0,42.88,42.88,0,0,0-9.981,4.21,40.757,40.757,0,0,0-8.448,6.535,42.729,42.729,0,0,0-6.535,8.476,41.689,41.689,0,0,0,6.48,50.61,42.036,42.036,0,0,0,8.449,6.535,42.232,42.232,0,0,0,32.235,4.21,41.818,41.818,0,0,0,18.457-10.69,40.83,40.83,0,0,0,6.534-8.449,42.977,42.977,0,0,0,4.211-9.951,40.515,40.515,0,0,0,1.5-11.1,41.1,41.1,0,0,0-1.5-11.155A42.761,42.761,0,0,0,668.362,160.115Zm-12.194,31.334a25.818,25.818,0,0,1-13.727,14,26.2,26.2,0,0,1-20.452,0,25.858,25.858,0,0,1-8.2-5.632,26.185,26.185,0,0,1-5.469-8.366,27.039,27.039,0,0,1,5.469-29.01,25.675,25.675,0,0,1,8.2-5.66,26.2,26.2,0,0,1,20.452,0,26.027,26.027,0,0,1,8.23,5.66,26.321,26.321,0,0,1,5.5,8.394,27.629,27.629,0,0,1,0,20.616Z" transform="translate(-365.117 -139.117)"/><path class="d" d="M783.458,184.686a21.825,21.825,0,0,0-4.621-4.21,45.611,45.611,0,0,0-5.769-3.336,62.976,62.976,0,0,0-6.48-2.707q-3.391-1.2-6.835-2.242-3.008-.929-5.742-1.887a32.617,32.617,0,0,1-4.84-2.105,11.353,11.353,0,0,1-3.335-2.625,5.217,5.217,0,0,1-1.23-3.445,7.274,7.274,0,0,1,.82-3.39,8.02,8.02,0,0,1,2.406-2.762,12.372,12.372,0,0,1,3.937-1.86,19.467,19.467,0,0,1,5.414-.684,15.031,15.031,0,0,1,4.731.767,26.812,26.812,0,0,1,4.346,1.858,28.605,28.605,0,0,1,6.344,4.649l.109.054a12.71,12.71,0,0,0,1.367.957,2.528,2.528,0,0,0,1.313.356,2.264,2.264,0,0,0,1.2-.492q.709-.492,1.586-1.23a20.982,20.982,0,0,0,1.75-1.668q.875-.928,1.7-1.8v.054l1.641-1.75a5.12,5.12,0,0,0,.82-1.23,3.085,3.085,0,0,0,.328-1.339,3.134,3.134,0,0,0-.738-1.722,14.654,14.654,0,0,0-1.887-2.078q-1.147-1.067-2.515-2.106t-2.68-1.859a39.484,39.484,0,0,0-9.515-4.293A34.747,34.747,0,0,0,756.964,139a39.478,39.478,0,0,0-11.866,1.668,28.074,28.074,0,0,0-9.077,4.648,20.323,20.323,0,0,0-7.875,16.433,18.588,18.588,0,0,0,6.672,14.737,35.388,35.388,0,0,0,8.34,5.278,86.852,86.852,0,0,0,11.674,4.374q2.9.821,5.769,1.75a28.661,28.661,0,0,1,5.168,2.215,12.91,12.91,0,0,1,3.718,3.007,6.274,6.274,0,0,1,1.422,4.129,8.854,8.854,0,0,1-1.093,4.374,10.362,10.362,0,0,1-3.008,3.364,14.536,14.536,0,0,1-4.539,2.16,20,20,0,0,1-5.633.766,16.438,16.438,0,0,1-4.675-.739,29.156,29.156,0,0,1-5-2.023,43.1,43.1,0,0,1-4.895-2.926,36,36,0,0,1-4.293-3.444h.054l-.218-.219a10.237,10.237,0,0,0-1.094-.93,2.322,2.322,0,0,0-1.422-.492,2.659,2.659,0,0,0-1.285.492q-.793.492-1.722,1.2a23.928,23.928,0,0,0-1.86,1.586q-.93.876-1.75,1.586l-1.8,1.8a6.5,6.5,0,0,0-.984,1.2,2.2,2.2,0,0,0-.328,1.148,3.986,3.986,0,0,0,1.2,2.516l.109.218v-.055a36.39,36.39,0,0,0,6.1,5.714,42.354,42.354,0,0,0,7.246,4.348A40.616,40.616,0,0,0,748,221.68a36.17,36.17,0,0,0,8.367.984,40.013,40.013,0,0,0,12.277-1.832,30.515,30.515,0,0,0,9.953-5.249,24.614,24.614,0,0,0,6.644-8.229,23.771,23.771,0,0,0,2.405-10.774,18.33,18.33,0,0,0-1.12-6.59A19.237,19.237,0,0,0,783.458,184.686Z" transform="translate(-405.898 -138.998)"/></g></g></svg>